<svg id="Layer_1" data-name="Layer 1" xmlns="http://www.w3.org/2000/svg" viewBox="0 0 400 300" width="406" height="306" class="illustration styles_illustrationTablet__1DWOa"><title>_</title><path d="M113,148.21s-22.12-6-26.94-26.63c0,0,34.29-6.93,35.26,28.45Z" fill="#68e1fd" opacity="0.58"></path><path d="M115.72,146s-15.46-24.44-1.86-47.29c0,0,26.07,16.56,14.49,47.34Z" fill="#68e1fd" opacity="0.73"></path><path d="M119.7,146s8.17-25.81,32.86-30.7c0,0,4.63,16.76-16,30.77Z" fill="#68e1fd"></path><polygon points="103.65 145.46 108.14 176.14 136.39 176.26 140.55 145.61 103.65 145.46" fill="#24285b"></polygon><path d="M247.13,104s17.22,32.6,21.29,67.38-6.61,58.8-65.49,54.83S129.8,198.08,140.58,166s57.88-70.69,57.88-70.69Z" fill="#24285b"></path><path d="M247.13,104s30.19-19,22.25-32.72S242.14,60.82,232.13,55.9s-63.68-13.62-33.67,39.43Z" fill="#24285b"></path><path d="M243,96.28s-30.37-5.75-55.91-4.86" fill="none" stroke="#ffd200" stroke-linecap="round" stroke-linejoin="round" stroke-width="3"></path><path d="M196.92,95.12s-12.46-36-32.1-19.14,30.89,19.14,30.89,19.14h0S146,107.07,169.38,126.87,196.92,95.12,196.92,95.12Z" fill="none" stroke="#ffd200" stroke-linecap="round" stroke-linejoin="round" stroke-width="3"></path><path d="M269.42,70.62s5.74,10.92-6.49,12.4-22.27-9.76-32-7.26-38,7.06-41.59-6.37S203,49.6,214.47,51.25,266.28,57.82,269.42,70.62Z" fill="#68e1fd"></path><ellipse cx="200" cy="228.5" rx="141.02" ry="20.51" fill="#e6e6e6" opacity="0.45"></ellipse><path d="M241.28,199.73l0,12.25c0,5.55-15.48,10-34.56,10s-34.54-4.55-34.53-10.1l0-12.25Z" fill="#ffd200"></path><path d="M241.26,214.5l0,12.24c0,5.55-15.48,10-34.56,10s-34.54-4.56-34.53-10.11l0-12.25Z" fill="#ffd200"></path><path d="M241.26,214.5l0,12.24c0,5.55-15.48,10-34.56,10s-34.54-4.56-34.53-10.11l0-12.25Z" opacity="0.08"></path><ellipse cx="206.37" cy="214.03" rx="9.96" ry="34.23" transform="translate(-8.01 420.04) rotate(-89.9)" fill="#ffd200"></ellipse><path d="M241.28,199.73l0,12.25c0,5.55-15.48,10-34.56,10s-34.54-4.55-34.53-10.1l0-12.25Z" opacity="0.08"></path><path d="M238.79,185.09l0,12.25c0,5.55-15.48,10-34.56,10s-34.54-4.55-34.53-10.1l0-12.25Z" fill="#ffd200"></path><path d="M241.33,170.34l0,12.25c0,5.55-15.49,10-34.57,10s-34.53-4.56-34.53-10.11l0-12.25Z" fill="#ffd200"></path><ellipse cx="206.39" cy="199.4" rx="9.96" ry="34.23" transform="translate(6.64 405.46) rotate(-89.9)" fill="#ffd200"></ellipse><path d="M238.79,185.09l0,12.25c0,5.55-15.48,10-34.56,10s-34.54-4.55-34.53-10.1l0-12.25Z" opacity="0.08"></path><ellipse cx="203.93" cy="184.9" rx="9.96" ry="34.23" transform="translate(18.69 388.52) rotate(-89.9)" fill="#ffd200"></ellipse><path d="M241.33,170.34l0,12.25c0,5.55-15.49,10-34.57,10s-34.53-4.56-34.53-10.11l0-12.25Z" opacity="0.08"></path><ellipse cx="206.77" cy="170.28" rx="9.96" ry="34.56" transform="translate(36.14 376.76) rotate(-89.9)" fill="#ffd200"></ellipse><path d="M321.53,197.25l0,13.71c0,6.21-17.33,11.22-38.69,11.18s-38.66-5.1-38.65-11.31l0-13.71Z" fill="#ffd200"></path><path d="M321.51,213.77l0,13.71c0,6.21-17.33,11.22-38.68,11.18s-38.67-5.1-38.66-11.31l0-13.71Z" fill="#ffd200"></path><path d="M321.51,213.77l0,13.71c0,6.21-17.33,11.22-38.68,11.18s-38.67-5.1-38.66-11.31l0-13.71Z" opacity="0.08"></path><ellipse cx="282.46" cy="213.25" rx="11.15" ry="38.31" transform="translate(68.73 495.34) rotate(-89.9)" fill="#ffd200"></ellipse><path d="M321.53,197.25l0,13.71c0,6.21-17.33,11.22-38.69,11.18s-38.66-5.1-38.65-11.31l0-13.71Z" opacity="0.08"></path><path d="M318.75,180.86l0,13.71c0,6.21-17.34,11.22-38.69,11.18s-38.66-5.1-38.65-11.31l0-13.71Z" fill="#ffd200"></path><path d="M321.59,164.34l0,13.71c0,6.21-17.34,11.22-38.69,11.19s-38.66-5.11-38.65-11.32l0-13.71Z" fill="#ffd200"></path><ellipse cx="282.48" cy="196.88" rx="11.15" ry="38.31" transform="translate(85.13 479.03) rotate(-89.9)" fill="#ffd200"></ellipse><path d="M318.75,180.86l0,13.71c0,6.21-17.34,11.22-38.69,11.18s-38.66-5.1-38.65-11.31l0-13.71Z" opacity="0.08"></path><ellipse cx="279.72" cy="180.64" rx="11.15" ry="38.31" transform="translate(98.61 460.06) rotate(-89.9)" fill="#ffd200"></ellipse><path d="M321.59,164.34l0,13.71c0,6.21-17.34,11.22-38.69,11.19s-38.66-5.11-38.65-11.32l0-13.71Z" opacity="0.08"></path><ellipse cx="282.91" cy="164.28" rx="11.15" ry="38.68" transform="translate(118.16 446.91) rotate(-89.9)" fill="#ffd200"></ellipse><path d="M253.83,146.87l0,13.71c0,6.22,17.33,11.22,38.69,11.19s38.66-5.1,38.65-11.32l0-13.71Z" fill="#ffd200"></path><path d="M251,130.36l0,13.71c0,6.21,17.33,11.22,38.69,11.18s38.66-5.1,38.65-11.31l0-13.72Z" fill="#ffd200"></path><path d="M253.83,146.87l0,13.71c0,6.22,17.33,11.22,38.69,11.19s38.66-5.1,38.65-11.32l0-13.71Z" opacity="0.08"></path><ellipse cx="292.85" cy="146.65" rx="38.31" ry="11.15" transform="translate(-0.25 0.49) rotate(-0.1)" fill="#ffd200"></ellipse><path d="M251,130.36l0,13.71c0,6.21,17.33,11.22,38.69,11.18s38.66-5.1,38.65-11.31l0-13.72Z" opacity="0.08"></path><ellipse cx="289.67" cy="130.29" rx="38.68" ry="11.15" transform="translate(-0.22 0.49) rotate(-0.1)" fill="#ffd200"></ellipse><path d="M166,196.22l0,13.71c0,6.21-17.33,11.22-38.69,11.19S88.58,216,88.59,209.8l0-13.71Z" fill="#ffd200"></path><path d="M165.93,212.74l0,13.71c0,6.22-17.33,11.22-38.68,11.19s-38.66-5.1-38.65-11.32l0-13.71Z" fill="#ffd200"></path><path d="M165.93,212.74l0,13.71c0,6.22-17.33,11.22-38.68,11.19s-38.66-5.1-38.65-11.32l0-13.71Z" opacity="0.08"></path><ellipse cx="126.88" cy="212.22" rx="11.15" ry="38.31" transform="translate(-85.56 338.74) rotate(-89.9)" fill="#ffd200"></ellipse><path d="M166,196.22l0,13.71c0,6.21-17.33,11.22-38.69,11.19S88.58,216,88.59,209.8l0-13.71Z" opacity="0.08"></path><path d="M163.17,179.83l0,13.71c0,6.22-17.33,11.22-38.69,11.19s-38.66-5.1-38.65-11.32l0-13.71Z" fill="#ffd200"></path><path d="M166,163.32,166,177c0,6.21-17.33,11.22-38.69,11.18s-38.66-5.1-38.65-11.31l0-13.71Z" fill="#ffd200"></path><ellipse cx="126.9" cy="195.85" rx="11.15" ry="38.31" transform="translate(-69.16 322.43) rotate(-89.9)" fill="#ffd200"></ellipse><path d="M163.17,179.83l0,13.71c0,6.22-17.33,11.22-38.69,11.19s-38.66-5.1-38.65-11.32l0-13.71Z" opacity="0.08"></path><ellipse cx="124.15" cy="179.62" rx="11.15" ry="38.31" transform="translate(-55.68 303.46) rotate(-89.9)" fill="#ffd200"></ellipse><path d="M166,163.32,166,177c0,6.21-17.33,11.22-38.69,11.18s-38.66-5.1-38.65-11.31l0-13.71Z" opacity="0.08"></path><circle cx="164.48" cy="211.5" r="28.71" opacity="0.08"></circle><path d="M145.39,182.76s-30.06,9.17-25.23,54.68c0,0,19.59.66,28.89-1.73C157.37,233.58,145.39,182.76,145.39,182.76Z" opacity="0.08"></path><ellipse cx="127.33" cy="163.25" rx="11.15" ry="38.68" transform="translate(-36.14 290.31) rotate(-89.9)" fill="#ffd200"></ellipse><circle cx="164.48" cy="211.5" r="28.71" fill="#ffd200"></circle><g opacity="0.08"><circle cx="165.88" cy="202.85" r="28.71"></circle></g><circle cx="164.48" cy="211.5" r="28.71" opacity="0.08"></circle><circle cx="165.88" cy="202.85" r="28.71" fill="#ffd200"></circle><path d="M166.81,190c.81,0,1.06.28,1.06,1.1v1.72a7.91,7.91,0,0,1,6.5,4.91c.42.85.24,1.31-.71,1.73l-1.73.78c-.81.39-1.2.21-1.66-.64a4.43,4.43,0,0,0-4.52-2.72c-3,0-4.37.89-4.37,2.9a2.67,2.67,0,0,0,2.43,2.36,17.46,17.46,0,0,0,2.54.39,16.69,16.69,0,0,1,4.7.92,6.46,6.46,0,0,1,2.08,1.13,6.8,6.8,0,0,1,1.87,4.94c0,3.85-2.58,6.46-7.13,7.13v1.84c0,.81-.25,1.09-1.06,1.09h-1.94c-.81,0-1.09-.28-1.09-1.09v-1.8a8,8,0,0,1-7.06-5.44,1.14,1.14,0,0,1,.81-1.62l1.73-.64c.88-.32,1.27-.1,1.66.78.77,2,2.36,3,4.76,3,3.25,0,4.87-1,4.87-3.1a2.15,2.15,0,0,0-1.52-2.19,11.85,11.85,0,0,0-3.49-.67,15.63,15.63,0,0,1-4.73-1,5.69,5.69,0,0,1-3.95-6c0-3.81,2.4-6.36,6.92-7v-1.72c0-.82.28-1.1,1.09-1.1Z" fill="#fff"></path><path d="M131.31,65.13S129,73.89,122.1,78.05c0,0,7.07-1.09,13.11,7.59,0,0,1.85-7.83,7.58-12.94C142.79,72.7,134.21,72.6,131.31,65.13Z" fill="#e6e6e6"></path><path d="M319.36,92.16s-7.22,5.49-15.21,4.52c0,0,6.24,3.49,5.66,14,0,0,6.28-5,13.93-5.53C323.74,105.2,317,99.84,319.36,92.16Z" fill="#e6e6e6"></path><path d="M293.77,68.19s-5.59,4.25-11.78,3.5c0,0,4.83,2.7,4.38,10.88a21.84,21.84,0,0,1,10.8-4.28S292,74.14,293.77,68.19Z" fill="#e6e6e6"></path></svg>